<svg width="638.478125px" height="94.39999999999999px" xmlns="http://www.w3.org/2000/svg" viewBox="-69.23906249999999 27.800000000000004 638.478125 94.39999999999999" style="background: none;" preserveAspectRatio="xMidYMid"><defs><filter id="editing-lego" x="-100%" y="-100%" width="300%" height="300%"><feFlood flood-color="#000" result="f1"></feFlood><feFlood flood-color="#ffff00" result="f2"></feFlood><feMorphology operator="dilate" radius="3" in="SourceAlpha"></feMorphology><feConvolveMatrix order="5,5" divisor="1" result="cm1" kernelMatrix="0 1 1 1 0  1 0 0 0 1  1 0 0 0 1  1 0 0 0 1  0 1 1 1 0"></feConvolveMatrix><feComposite operator="in" in="f1" in2="cm1" result="c1"></feComposite><feMorphology operator="dilate" radius="3"></feMorphology><feConvolveMatrix order="5,5" divisor="1" result="cm2" kernelMatrix="0 1 1 1 0  1 0 0 0 1  1 0 0 0 1  1 0 0 0 1  0 1 1 1 0"></feConvolveMatrix><feComposite operator="in" in="f2" in2="cm2" result="c2"></feComposite><feMerge><feMergeNode in="c2"></feMergeNode><feMergeNode in="c1"></feMergeNode><feMergeNode in="SourceGraphic"></feMergeNode></feMerge></filter></defs><g filter="url(#editing-lego)"><g transform="translate(22.37999153137207, 96.6200008392334)"><path d="M2.84-1.41L2.84-1.41L2.84-1.41Q1.74-2.63 1.25-4.56L1.25-4.56L1.25-4.56Q0.75-6.49 0.75-9.63L0.75-9.63L0.75-9.63Q0.75-12.78 1.83-15.65L1.83-15.65L1.83-15.65Q2.91-18.52 4.89-20.59L4.89-20.59L4.89-20.59Q8.93-24.91 15.60-24.91L15.60-24.91L15.60-24.91Q18.00-24.91 19.74-24.11L19.74-24.11L27.78-24.91L24.30-6.58L24.30-6.58Q24.16-6.02 24.16-4.98L24.16-4.98L24.16-4.98Q24.16-3.95 24.79-3.29L24.79-3.29L24.79-3.29Q25.43-2.63 26.37-2.54L26.37-2.54L26.37-2.54Q25.90-0.94 24.18 0L24.18 0L24.18 0Q22.47 0.94 20.54 0.94L20.54 0.94L20.54 0.94Q18.61 0.94 17.32 0.21L17.32 0.21L17.32 0.21Q16.03-0.52 15.65-1.74L15.65-1.74L15.65-1.74Q14.90-0.56 13.30 0.19L13.30 0.19L13.30 0.19Q11.70 0.94 9.56 0.94L9.56 0.94L9.56 0.94Q7.43 0.94 5.69 0.38L5.69 0.38L5.69 0.38Q3.95-0.19 2.84-1.41ZM12.76-20.49L12.76-20.49L12.76-20.49Q12.22-19.65 11.75-18.21L11.75-18.21L11.75-18.21Q11.28-16.78 10.50-12.95L10.50-12.95L10.50-12.95Q9.73-9.12 9.73-6.39L9.73-6.39L9.73-6.39Q9.73-3.67 10.15-2.87L10.15-2.87L10.15-2.87Q10.57-2.07 11.33-2.07L11.33-2.07L11.33-2.07Q12.83-2.07 13.94-3.50L13.94-3.50L13.94-3.50Q15.04-4.93 15.46-7.47L15.46-7.47L17.95-21.24L17.95-21.24Q16.97-22.09 15.82-22.09L15.82-22.09L15.82-22.09Q14.66-22.09 13.98-21.71L13.98-21.71L13.98-21.71Q13.30-21.34 12.76-20.49ZM65.38-7.85L65.38-7.85Q62.28-3.57 59.29-1.32L59.29-1.32L59.29-1.32Q56.31 0.94 53.23 0.94L53.23 0.94L53.23 0.94Q50.15 0.94 49.07 0.33L49.07 0.33L49.07-10.01L49.07-10.01Q46.39-2.87 41.59-0.09L41.59-0.09L41.59-0.09Q39.86 0.94 38.21 0.94L38.21 0.94L38.21 0.94Q35.06 0.94 33.70 0.33L33.70 0.33L33.70 0.33Q33.37-10.43 33.09-13.42L33.09-13.42L33.09-13.42Q32.81-16.40 32.57-18.24L32.57-18.24L32.57-18.24Q32.10-21.90 30.50-23.41L30.50-23.41L30.50-23.41Q32.52-24.91 35.34-24.91L35.34-24.91L35.34-24.91Q40.80-24.91 41.55-18.14L41.55-18.14L41.55-18.14Q41.74-16.54 41.74-14.85L41.74-14.85L41.74-14.85Q41.74-12.31 41.17-3.48L41.17-3.48L41.17-3.48Q42.30-4.00 43.50-5.85L43.50-5.85L43.50-5.85Q44.70-7.71 45.68-10.25L45.68-10.25L45.68-10.25Q47.89-16.12 47.89-21.20L47.89-21.20L47.89-21.20Q47.89-22.00 47.68-22.84L47.68-22.84L47.68-22.84Q47.47-23.69 47.23-23.92L47.23-23.92L47.23-23.92Q48.88-24.91 51.39-24.91L51.39-24.91L51.39-24.91Q53.91-24.91 55.11-23.19L55.11-23.19L55.11-23.19Q56.31-21.48 56.64-18.33L56.64-18.33L56.64-18.33Q57.01-14.34 57.01-11.94L57.01-11.94L57.01-11.94Q57.01-8.60 56.68-3.67L56.68-3.67L56.68-3.67Q59.03-5.36 60.96-10.90L60.96-10.90L60.96-10.90Q62.89-16.45 62.89-20.40L62.89-20.40L62.89-20.40Q62.89-22.14 62.60-23.17L62.60-23.17L62.60-23.17Q64.16-24.91 66.83-24.91L66.83-24.91L66.83-24.91Q68.48-24.91 69.68-24.02L69.68-24.02L69.68-24.02Q70.88-23.12 70.88-21.46L70.88-21.46L70.88-21.46Q70.88-19.79 70.38-18.00L70.38-18.00L70.38-18.00Q69.89-16.21 69.09-14.38L69.09-14.38L69.09-14.38Q67.54-10.72 65.38-7.85L65.38-7.85ZM91.18-7.94L91.18-7.94L91.18-7.94Q92.36-7.14 92.36-5.38L92.36-5.38L92.36-5.38Q92.36-3.62 91.46-2.49L91.46-2.49L91.46-2.49Q90.57-1.36 89.11-0.61L89.11-0.61L89.11-0.61Q86.10 0.94 82.86 0.94L82.86 0.94L82.86 0.94Q79.62 0.94 77.71 0.23L77.71 0.23L77.71 0.23Q75.81-0.47 74.54-1.79L74.54-1.79L74.54-1.79Q72.05-4.28 72.05-8.84L72.05-8.84L72.05-8.84Q72.05-15.93 75.91-20.26L75.91-20.26L75.91-20.26Q80.04-24.91 87.23-24.91L87.23-24.91L87.23-24.91Q91.70-24.91 93.91-23.03L93.91-23.03L93.91-23.03Q95.55-21.62 95.55-19.32L95.55-19.32L95.55-19.32Q95.55-11.04 81.26-11.04L81.26-11.04L81.26-11.04Q81.08-9.82 81.08-8.79L81.08-8.79L81.08-8.79Q81.08-6.63 82.04-5.80L82.04-5.80L82.04-5.80Q83.00-4.98 84.79-4.98L84.79-4.98L84.79-4.98Q86.57-4.98 88.48-5.80L88.48-5.80L88.48-5.80Q90.38-6.63 91.18-7.94ZM81.59-13.07L81.59-13.07L81.59-13.07Q84.93-13.07 86.86-15.13L86.86-15.13L86.86-15.13Q88.78-17.11 88.78-20.26L88.78-20.26L88.78-20.26Q88.78-21.34 88.38-21.93L88.38-21.93L88.38-21.93Q87.98-22.51 87.19-22.51L87.19-22.51L87.19-22.51Q86.39-22.51 85.70-22.21L85.70-22.21L85.70-22.21Q85.02-21.90 84.32-20.87L84.32-20.87L84.32-20.87Q82.58-18.52 81.59-13.07ZM111.20-16.50L111.20-16.50L111.20-16.50Q111.86-18.24 111.86-19.74L111.86-19.74L111.86-19.74Q111.86-22.51 109.60-22.51L109.60-22.51L109.60-22.51Q108.43-22.51 107.47-21.46L107.47-21.46L107.47-21.46Q106.50-20.40 106.50-19.08L106.50-19.08L106.50-19.08Q106.50-18.14 107.25-17.39L107.25-17.39L107.25-17.39Q108.34-16.36 111.11-14.66L111.11-14.66L111.11-14.66Q113.88-12.97 114.94-11.59L114.94-11.59L114.94-11.59Q116.00-10.20 116.00-8.30L116.00-8.30L116.00-8.30Q116.00-6.39 115.08-4.65L115.08-4.65L115.08-4.65Q114.16-2.91 112.52-1.69L112.52-1.69L112.52-1.69Q108.99 0.94 103.35 0.94L103.35 0.94L103.35 0.94Q100.30 0.94 97.95-0.66L97.95-0.66L97.95-0.66Q95.60-2.21 95.60-4.04L95.60-4.04L95.60-4.04Q95.60-5.88 96.94-6.96L96.94-6.96L96.94-6.96Q98.28-8.04 100.25-8.04L100.25-8.04L100.25-8.04Q102.23-8.04 103.45-7.29L103.45-7.29L103.45-7.29Q102.84-5.73 102.84-4.70L102.84-4.70L102.84-4.70Q102.84-1.60 105.47-1.60L105.47-1.60L105.47-1.60Q106.60-1.60 107.35-2.30L107.35-2.30L107.35-2.30Q108.10-3.01 108.10-4.23L108.10-4.23L108.10-4.23Q108.10-6.63 104.06-9.16L104.06-9.16L104.06-9.16Q100.77-11.33 100.02-12.17L100.02-12.17L100.02-12.17Q98.75-13.68 98.75-15.56L98.75-15.56L98.75-15.56Q98.75-17.44 99.64-19.22L99.64-19.22L99.64-19.22Q100.53-21.01 102.18-22.28L102.18-22.28L102.18-22.28Q105.61-24.91 111.58-24.91L111.58-24.91L111.58-24.91Q114.63-24.91 116.44-23.69L116.44-23.69L116.44-23.69Q118.25-22.47 118.25-20.40L118.25-20.40L118.25-20.40Q118.25-18.33 117.01-17.16L117.01-17.16L117.01-17.16Q115.76-15.98 113.51-15.98L113.51-15.98L113.51-15.98Q111.95-15.98 111.20-16.50ZM130.24 0.94L130.24 0.94L130.24 0.94Q119.90 0.94 119.90-8.79L119.90-8.79L119.90-8.79Q119.90-15.70 123.70-20.16L123.70-20.16L123.70-20.16Q127.75-24.91 134.75-24.91L134.75-24.91L134.75-24.91Q139.83-24.91 142.41-22.56L142.41-22.56L142.41-22.56Q145.00-20.21 145.00-15.28L145.00-15.28L145.00-15.28Q145.00-7.75 140.95-3.38L140.95-3.38L140.95-3.38Q137.00 0.94 130.24 0.94ZM131.46-19.50L131.46-19.50L131.46-19.50Q130.90-18.24 130.45-16.33L130.45-16.33L130.45-16.33Q130.00-14.43 129.44-11.42L129.44-11.42L129.44-11.42Q128.87-8.41 128.87-4.70L128.87-4.70L128.87-4.70Q128.87-3.48 129.27-2.68L129.27-2.68L129.27-2.68Q129.67-1.88 130.75-1.88L130.75-1.88L130.75-1.88Q131.84-1.88 132.52-2.40L132.52-2.40L132.52-2.40Q133.20-2.91 133.72-4.14L133.72-4.14L133.72-4.14Q134.66-6.30 135.41-10.32L135.41-10.32L135.41-10.32Q136.16-14.34 136.23-16.07L136.23-16.07L136.23-16.07Q136.30-17.81 136.30-19.11L136.30-19.11L136.30-19.11Q136.30-20.40 135.92-21.24L135.92-21.24L135.92-21.24Q135.55-22.09 134.49-22.09L134.49-22.09L134.49-22.09Q133.43-22.09 132.73-21.43L132.73-21.43L132.73-21.43Q132.02-20.77 131.46-19.50ZM181.61 0.94L181.61 0.94L181.61 0.94Q175.92 0.94 175.92-3.48L175.92-3.48L175.92-3.48Q175.92-5.41 176.74-9.14L176.74-9.14L176.74-9.14Q177.57-12.88 177.85-14.38L177.85-14.38L177.85-14.38Q178.51-17.81 178.51-18.89L178.51-18.89L178.51-18.89Q178.51-21.29 176.72-21.29L176.72-21.29L176.72-21.29Q175.54-21.29 174.42-19.67L174.42-19.67L174.42-19.67Q173.29-18.05 172.77-14.80L172.77-14.80L169.86 0L160.69 0.94L163.23-11.84L163.23-11.84Q163.65-13.96 164.03-16.36L164.03-16.36L164.03-16.36Q164.41-18.75 164.41-19.13L164.41-19.13L164.41-19.13Q164.41-21.29 162.81-21.29L162.81-21.29L162.81-21.29Q161.73-21.29 160.55-19.69L160.55-19.69L160.55-19.69Q159.38-18.09 158.72-14.80L158.72-14.80L155.85 0L146.59 0.94L151.53-23.97L159.19-24.91L158.39-20.16L158.39-20.16Q159.61-22.70 161.87-23.81L161.87-23.81L161.87-23.81Q164.12-24.91 167.65-24.91L167.65-24.91L167.65-24.91Q169.67-24.91 170.99-23.92L170.99-23.92L170.99-23.92Q172.30-22.94 172.72-21.34L172.72-21.34L172.72-21.34Q173.52-22.98 175.57-23.95L175.57-23.95L175.57-23.95Q177.61-24.91 180.13-24.91L180.13-24.91L180.13-24.91Q182.64-24.91 183.89-24.37L183.89-24.37L183.89-24.37Q185.13-23.83 185.88-22.94L185.88-22.94L185.88-22.94Q187.15-21.29 187.15-18.28L187.15-18.28L187.15-18.28Q187.15-15.32 185.88-9.16L185.88-9.16L185.88-9.16Q185.23-6.16 185.23-5.05L185.23-5.05L185.23-5.05Q185.23-3.95 185.86-3.29L185.86-3.29L185.86-3.29Q186.50-2.63 187.44-2.54L187.44-2.54L187.44-2.54Q186.97-0.94 185.34 0L185.34 0L185.34 0Q183.72 0.94 181.61 0.94ZM210.09-7.94L210.09-7.94L210.09-7.94Q211.26-7.14 211.26-5.38L211.26-5.38L211.26-5.38Q211.26-3.62 210.37-2.49L210.37-2.49L210.37-2.49Q209.48-1.36 208.02-0.61L208.02-0.61L208.02-0.61Q205.01 0.94 201.77 0.94L201.77 0.94L201.77 0.94Q198.53 0.94 196.62 0.23L196.62 0.23L196.62 0.23Q194.72-0.47 193.45-1.79L193.45-1.79L193.45-1.79Q190.96-4.28 190.96-8.84L190.96-8.84L190.96-8.84Q190.96-15.93 194.81-20.26L194.81-20.26L194.81-20.26Q198.95-24.91 206.14-24.91L206.14-24.91L206.14-24.91Q210.61-24.91 212.82-23.03L212.82-23.03L212.82-23.03Q214.46-21.62 214.46-19.32L214.46-19.32L214.46-19.32Q214.46-11.04 200.17-11.04L200.17-11.04L200.17-11.04Q199.99-9.82 199.99-8.79L199.99-8.79L199.99-8.79Q199.99-6.63 200.95-5.80L200.95-5.80L200.95-5.80Q201.91-4.98 203.70-4.98L203.70-4.98L203.70-4.98Q205.48-4.98 207.39-5.80L207.39-5.80L207.39-5.80Q209.29-6.63 210.09-7.94ZM200.50-13.07L200.50-13.07L200.50-13.07Q203.84-13.07 205.77-15.13L205.77-15.13L205.77-15.13Q207.69-17.11 207.69-20.26L207.69-20.26L207.69-20.26Q207.69-21.34 207.29-21.93L207.29-21.93L207.29-21.93Q206.89-22.51 206.09-22.51L206.09-22.51L206.09-22.51Q205.30-22.51 204.61-22.21L204.61-22.21L204.61-22.21Q203.93-21.90 203.23-20.87L203.23-20.87L203.23-20.87Q201.49-18.52 200.50-13.07ZM217.80-7.61L217.80-7.61L217.80-7.61Q216.29-8.70 216.29-10.76L216.29-10.76L216.29-10.76Q216.29-11.89 216.86-12.81L216.86-12.81L216.86-12.81Q217.42-13.72 218.55-13.87L218.55-13.87L227.81-13.87L227.81-13.87Q229.36-13.87 229.83-14.80L229.83-14.80L229.83-14.80Q230.58-14.38 230.91-13.49L230.91-13.49L230.91-13.49Q231.24-12.60 231.24-11.66L231.24-11.66L231.24-11.66Q231.24-10.72 230.51-9.80L230.51-9.80L230.51-9.80Q229.78-8.88 228.70-8.79L228.70-8.79L220.10-8.79L220.10-8.79Q219.11-8.79 218.64-8.48L218.64-8.48L218.64-8.48Q218.17-8.18 217.80-7.61ZM252.81-27.26L252.81-27.26L252.81-27.26Q253.47-28.39 253.47-29.61L253.47-29.61L253.47-29.61Q253.47-31.77 252.16-31.77L252.16-31.77L252.16-31.77Q250.13-31.77 249.29-27.64L249.29-27.64L248.58-23.97L252.86-23.97L252.58-21.86L248.16-21.86L243.93 0L234.44 0.94L238.95-21.86L235.61-21.86L236.03-23.97L239.32-23.97L240.31-27.68L240.31-27.68Q241.16-31.11 244.78-32.71L244.78-32.71L244.78-32.71Q247.41-33.84 251.83-33.84L251.83-33.84L251.83-33.84Q256.24-33.84 258.22-32.71L258.22-32.71L258.22-32.71Q260.19-31.58 260.19-30.08L260.19-30.08L260.19-30.08Q260.19-28.58 259.02-27.64L259.02-27.64L259.02-27.64Q257.84-26.70 256.53-26.70L256.53-26.70L256.53-26.70Q253.94-26.70 252.81-27.26ZM267.15-13.21L267.15-13.21L267.15-13.21Q268.84-16.21 268.84-19.27L268.84-19.27L268.84-19.27Q268.84-21.29 267.38-21.29L267.38-21.29L267.38-21.29Q266.25-21.29 265.08-19.36L265.08-19.36L265.08-19.36Q263.86-17.44 263.48-14.95L263.48-14.95L261.04 0L251.31 0.94L256.10-23.97L263.86-24.91L263.01-20.16L263.01-20.16Q265.31-24.91 270.49-24.91L270.49-24.91L270.49-24.91Q273.21-24.91 274.69-23.50L274.69-23.50L274.69-23.50Q276.17-22.09 276.17-19.20L276.17-19.20L276.17-19.20Q276.17-16.31 274.27-14.48L274.27-14.48L274.27-14.48Q272.37-12.64 269.12-12.64L269.12-12.64L269.12-12.64Q267.71-12.64 267.15-13.21ZM295.96-7.94L295.96-7.94L295.96-7.94Q297.13-7.14 297.13-5.38L297.13-5.38L297.13-5.38Q297.13-3.62 296.24-2.49L296.24-2.49L296.24-2.49Q295.35-1.36 293.89-0.61L293.89-0.61L293.89-0.61Q290.88 0.94 287.64 0.94L287.64 0.94L287.64 0.94Q284.40 0.94 282.49 0.23L282.49 0.23L282.49 0.23Q280.59-0.47 279.32-1.79L279.32-1.79L279.32-1.79Q276.83-4.28 276.83-8.84L276.83-8.84L276.83-8.84Q276.83-15.93 280.68-20.26L280.68-20.26L280.68-20.26Q284.82-24.91 292.01-24.91L292.01-24.91L292.01-24.91Q296.48-24.91 298.69-23.03L298.69-23.03L298.69-23.03Q300.33-21.62 300.33-19.32L300.33-19.32L300.33-19.32Q300.33-11.04 286.04-11.04L286.04-11.04L286.04-11.04Q285.85-9.82 285.85-8.79L285.85-8.79L285.85-8.79Q285.85-6.63 286.82-5.80L286.82-5.80L286.82-5.80Q287.78-4.98 289.57-4.98L289.57-4.98L289.57-4.98Q291.35-4.98 293.26-5.80L293.26-5.80L293.26-5.80Q295.16-6.63 295.96-7.94ZM286.37-13.07L286.37-13.07L286.37-13.07Q289.71-13.07 291.63-15.13L291.63-15.13L291.63-15.13Q293.56-17.11 293.56-20.26L293.56-20.26L293.56-20.26Q293.56-21.34 293.16-21.93L293.16-21.93L293.16-21.93Q292.76-22.51 291.96-22.51L291.96-22.51L291.96-22.51Q291.17-22.51 290.48-22.21L290.48-22.21L290.48-22.21Q289.80-21.90 289.10-20.87L289.10-20.87L289.10-20.87Q287.36-18.52 286.37-13.07ZM313.30 9.40L315.28-0.14L315.28-0.14Q313.73 0.94 311.26 0.94L311.26 0.94L311.26 0.94Q308.79 0.94 306.98 0.38L306.98 0.38L306.98 0.38Q305.17-0.19 304.04-1.41L304.04-1.41L304.04-1.41Q301.88-3.76 301.88-9.26L301.88-9.26L301.88-9.26Q301.88-16.21 306.02-20.59L306.02-20.59L306.02-20.59Q310.06-24.91 316.73-24.91L316.73-24.91L316.73-24.91Q319.13-24.91 320.87-24.11L320.87-24.11L329.19-24.91L322.80 8.46L313.30 9.40ZM312.50-1.97L312.50-1.97L312.50-1.97Q313.96-1.97 315.04-3.45L315.04-3.45L315.04-3.45Q316.12-4.93 316.59-7.47L316.59-7.47L319.08-21.24L319.08-21.24Q318.10-22.09 316.94-22.09L316.94-22.09L316.94-22.09Q315.79-22.09 315.11-21.71L315.11-21.71L315.11-21.71Q314.43-21.34 313.91-20.49L313.91-20.49L313.91-20.49Q312.55-18.28 311.47-11.89L311.47-11.89L311.47-11.89Q310.86-8.08 310.86-5.03L310.86-5.03L310.86-5.03Q310.86-1.97 312.50-1.97ZM331.68-4.70L331.68-4.70L331.68-4.70Q331.68-5.97 332.34-9.16L332.34-9.16L334.83-21.86L332.06-21.86L332.24-23.27L332.24-23.27Q337.88-24.96 343.34-29.09L343.34-29.09L345.59-29.09L344.46-23.97L348.13-23.97L347.71-21.86L344.09-21.86L341.69-9.16L341.69-9.16Q341.08-6.25 341.08-5.26L341.08-5.26L341.08-5.26Q341.08-3.01 343.05-2.54L343.05-2.54L343.05-2.54Q342.58-0.94 340.89 0L340.89 0L340.89 0Q339.20 0.94 336.80 0.94L336.80 0.94L336.80 0.94Q334.41 0.94 333.04-0.56L333.04-0.56L333.04-0.56Q331.68-2.07 331.68-4.70ZM362.61-13.21L362.61-13.21L362.61-13.21Q364.30-16.21 364.30-19.27L364.30-19.27L364.30-19.27Q364.30-21.29 362.84-21.29L362.84-21.29L362.84-21.29Q361.71-21.29 360.54-19.36L360.54-19.36L360.54-19.36Q359.32-17.44 358.94-14.95L358.94-14.95L356.50 0L346.77 0.94L351.56-23.97L359.32-24.91L358.47-20.16L358.47-20.16Q360.77-24.91 365.94-24.91L365.94-24.91L365.94-24.91Q368.67-24.91 370.15-23.50L370.15-23.50L370.15-23.50Q371.63-22.09 371.63-19.20L371.63-19.20L371.63-19.20Q371.63-16.31 369.73-14.48L369.73-14.48L369.73-14.48Q367.82-12.64 364.58-12.64L364.58-12.64L364.58-12.64Q363.17-12.64 362.61-13.21ZM374.43-1.41L374.43-1.41L374.43-1.41Q373.32-2.63 372.83-4.56L372.83-4.56L372.83-4.56Q372.33-6.49 372.33-9.63L372.33-9.63L372.33-9.63Q372.33-12.78 373.42-15.65L373.42-15.65L373.42-15.65Q374.50-18.52 376.47-20.59L376.47-20.59L376.47-20.59Q380.51-24.91 387.19-24.91L387.19-24.91L387.19-24.91Q389.58-24.91 391.32-24.11L391.32-24.11L399.36-24.91L395.88-6.58L395.88-6.58Q395.74-6.02 395.74-4.98L395.74-4.98L395.74-4.98Q395.74-3.95 396.37-3.29L396.37-3.29L396.37-3.29Q397.01-2.63 397.95-2.54L397.95-2.54L397.95-2.54Q397.48-0.94 395.76 0L395.76 0L395.76 0Q394.05 0.94 392.12 0.94L392.12 0.94L392.12 0.94Q390.19 0.94 388.90 0.21L388.90 0.21L388.90 0.21Q387.61-0.52 387.23-1.74L387.23-1.74L387.23-1.74Q386.48-0.56 384.88 0.19L384.88 0.19L384.88 0.19Q383.29 0.94 381.15 0.94L381.15 0.94L381.15 0.94Q379.01 0.94 377.27 0.38L377.27 0.38L377.27 0.38Q375.53-0.19 374.43-1.41ZM384.34-20.49L384.34-20.49L384.34-20.49Q383.80-19.65 383.33-18.21L383.33-18.21L383.33-18.21Q382.86-16.78 382.09-12.95L382.09-12.95L382.09-12.95Q381.31-9.12 381.31-6.39L381.31-6.39L381.31-6.39Q381.31-3.67 381.73-2.87L381.73-2.87L381.73-2.87Q382.16-2.07 382.91-2.07L382.91-2.07L382.91-2.07Q384.41-2.07 385.52-3.50L385.52-3.50L385.52-3.50Q386.62-4.93 387.05-7.47L387.05-7.47L389.54-21.24L389.54-21.24Q388.55-22.09 387.40-22.09L387.40-22.09L387.40-22.09Q386.25-22.09 385.56-21.71L385.56-21.71L385.56-21.71Q384.88-21.34 384.34-20.49ZM416.51-24.91L416.51-24.91L416.51-24.91Q418.21-24.91 419.52-24.53L419.52-24.53L419.52-24.53Q419.57-24.72 419.66-25.24L419.66-25.24L419.90-26.70L419.90-26.70Q420.09-27.64 420.37-29.19L420.37-29.19L421.12-32.90L430.47-33.84L425.26-6.58L425.26-6.58Q425.21-6.30 425.21-5.83L425.21-5.83L425.21-5.08L425.21-5.08Q425.21-4.04 425.73-3.27L425.73-3.27L425.73-3.27Q426.24-2.49 427.09-2.49L427.09-2.49L427.09-2.49Q426.15-0.28 423.28 0.66L423.28 0.66L423.28 0.66Q422.30 0.94 420.91 0.94L420.91 0.94L420.91 0.94Q419.52 0.94 418.25 0.21L418.25 0.21L418.25 0.21Q416.98-0.52 416.61-1.74L416.61-1.74L416.61-1.74Q415.86-0.52 414.35 0.21L414.35 0.21L414.35 0.21Q412.85 0.94 410.66 0.94L410.66 0.94L410.66 0.94Q408.48 0.94 406.67 0.38L406.67 0.38L406.67 0.38Q404.86-0.19 403.73-1.41L403.73-1.41L403.73-1.41Q401.66-3.81 401.66-9.26L401.66-9.26L401.66-9.26Q401.66-16.31 405.80-20.59L405.80-20.59L405.80-20.59Q409.93-24.91 416.51-24.91ZM416.19-22.09L416.19-22.09L416.19-22.09Q414.45-22.09 413.51-20.21L413.51-20.21L413.51-20.21Q412.57-18.33 411.60-13.68L411.60-13.68L411.60-13.68Q410.64-9.02 410.64-4.84L410.64-4.84L410.64-4.84Q410.64-1.97 412.33-1.97L412.33-1.97L412.33-1.97Q413.84-1.97 414.89-3.48L414.89-3.48L414.89-3.48Q415.95-4.98 416.37-7.47L416.37-7.47L418.91-21.24L418.91-21.24Q417.92-22.09 416.19-22.09ZM450.12-7.94L450.12-7.94L450.12-7.94Q451.29-7.14 451.29-5.38L451.29-5.38L451.29-5.38Q451.29-3.62 450.40-2.49L450.40-2.49L450.40-2.49Q449.51-1.36 448.05-0.61L448.05-0.61L448.05-0.61Q445.04 0.94 441.80 0.94L441.80 0.94L441.80 0.94Q438.56 0.94 436.65 0.23L436.65 0.23L436.65 0.23Q434.75-0.47 433.48-1.79L433.48-1.79L433.48-1.79Q430.99-4.28 430.99-8.84L430.99-8.84L430.99-8.84Q430.99-15.93 434.84-20.26L434.84-20.26L434.84-20.26Q438.98-24.91 446.17-24.91L446.17-24.91L446.17-24.91Q450.64-24.91 452.85-23.03L452.85-23.03L452.85-23.03Q454.49-21.62 454.49-19.32L454.49-19.32L454.49-19.32Q454.49-11.04 440.20-11.04L440.20-11.04L440.20-11.04Q440.01-9.82 440.01-8.79L440.01-8.79L440.01-8.79Q440.01-6.63 440.98-5.80L440.98-5.80L440.98-5.80Q441.94-4.98 443.73-4.98L443.73-4.98L443.73-4.98Q445.51-4.98 447.42-5.80L447.42-5.80L447.42-5.80Q449.32-6.63 450.12-7.94ZM440.53-13.07L440.53-13.07L440.53-13.07Q443.87-13.07 445.80-15.13L445.80-15.13L445.80-15.13Q447.72-17.11 447.72-20.26L447.72-20.26L447.72-20.26Q447.72-21.34 447.32-21.93L447.32-21.93L447.32-21.93Q446.92-22.51 446.12-22.51L446.12-22.51L446.12-22.51Q445.33-22.51 444.64-22.21L444.64-22.21L444.64-22.21Q443.96-21.90 443.26-20.87L443.26-20.87L443.26-20.87Q441.52-18.52 440.53-13.07Z" fill="#fff"></path></g></g><style>text {
  font-size: 64px;
  font-family: Arial Black;
  dominant-baseline: central;
  text-anchor: middle;
}</style></svg>